<svg xmlns="http://www.w3.org/2000/svg" width="55" height="50" viewBox="0 0 55 50">
  <defs>
    <style>
      .cls-1 {
        fill: #f217bb;
        fill-rule: evenodd;
      }
    </style>
  </defs>
  <path class="cls-1" d="M248.761,6447.42a1.977,1.977,0,1,1-1.979-1.96,1.967,1.967,0,0,1,1.979,1.96m-6.286,0a1.977,1.977,0,1,1-1.979-1.96,1.968,1.968,0,0,1,1.979,1.96m-6.286,0a1.977,1.977,0,1,1-1.98-1.96,1.967,1.967,0,0,1,1.98,1.96m-7.4,29.58a4.462,4.462,0,0,1-4.476-4.44v-6.66h-0.892a9.608,9.608,0,0,1-9.374-8.24,1.585,1.585,0,0,1-.012-0.19l-0.008-2.07a2.29,2.29,0,0,1,1.5-.82h0.006a2.326,2.326,0,0,1,1.511.81l0.007,1.97a6.553,6.553,0,0,0,6.365,5.55h2.4a1.5,1.5,0,0,1,1.511,1.49v8.16a1.461,1.461,0,0,0,2.515.99l0.034-.04,10.268-10.16a1.521,1.521,0,0,1,1.068-.44h16.362a6.373,6.373,0,0,0,6.4-6.34v-18.24a6.373,6.373,0,0,0-6.4-6.34H223.418a6.373,6.373,0,0,0-6.4,6.34l0.025,13.36a2.464,2.464,0,0,1-1.507.65h0a2.488,2.488,0,0,1-1.511-.65L214,6438.33a9.382,9.382,0,0,1,9.419-9.33h34.161a9.382,9.382,0,0,1,9.418,9.33v18.24a9.382,9.382,0,0,1-9.418,9.33H241.842l-9.809,9.71a4.515,4.515,0,0,1-3.247,1.39" transform="translate(-213 -6428)"/>
</svg>
