<svg xmlns="http://www.w3.org/2000/svg" width="28" height="24" viewBox="0 0 28 24">
  <defs>
    <style>
      .cls-1 {
        fill: #fff;
        fill-rule: evenodd;
      }
    </style>
  </defs>
  <path class="cls-1" d="M249.657,7710.12v4.34H248.29v-4.34H243.9v-1.35h4.386v-4.27h1.367v4.27H254v1.35h-4.343Zm-11.751-5.98a4.083,4.083,0,0,1,.7.54,5.912,5.912,0,0,1,.727.91,5.547,5.547,0,0,1,.6,1.2,5.372,5.372,0,0,1,.216,1.61,4.608,4.608,0,0,1-.778,2.71,8.643,8.643,0,0,1-.778.9c-0.3.28-.627,0.56-0.969,0.85a3.982,3.982,0,0,0-.543.66,1.426,1.426,0,0,0-.294.89,1.123,1.123,0,0,0,.3.81,5.387,5.387,0,0,0,.5.54l1.115,0.88a10.712,10.712,0,0,1,1.822,1.8,4.4,4.4,0,0,1,.768,2.61,5.2,5.2,0,0,1-2.108,4.06,9.826,9.826,0,0,1-6.311,1.89,8.2,8.2,0,0,1-5.154-1.41A3.783,3.783,0,0,1,226,7722.5a4.257,4.257,0,0,1,.559-1.94,4.691,4.691,0,0,1,1.964-1.89,10.737,10.737,0,0,1,3.352-1.17,27.031,27.031,0,0,1,2.89-.27,6.748,6.748,0,0,1-.633-0.96,2.125,2.125,0,0,1-.325-1.19,1.737,1.737,0,0,1,.124-0.7q0.108-.285.2-0.54a9.957,9.957,0,0,1-1.056.06,5.127,5.127,0,0,1-4-1.58,4.63,4.63,0,0,1-1.439-3.37,5.66,5.66,0,0,1,2.039-4.21,7.14,7.14,0,0,1,2.912-1.44,14.222,14.222,0,0,1,2.8-.29h6.571l-2.03,1.13h-2.025Zm-4.27,14.01a14.992,14.992,0,0,0-2.087.44c-0.167.06-.4,0.16-0.706,0.28a4.1,4.1,0,0,0-.926.57,3.259,3.259,0,0,0-.769.95,2.76,2.76,0,0,0-.36,1.45,3.2,3.2,0,0,0,1.569,2.73,6.97,6.97,0,0,0,4.079,1.11,5.842,5.842,0,0,0,3.546-.98,2.945,2.945,0,0,0,1.193-2.42,3,3,0,0,0-.816-2.09,20.094,20.094,0,0,0-2.7-2.07q-0.314-.03-0.737-0.03A7.661,7.661,0,0,0,233.636,7718.15Zm2.734-12.05a4.193,4.193,0,0,0-1.227-1.48,3.226,3.226,0,0,0-1.786-.57,2.925,2.925,0,0,0-2.221,1.03,3.782,3.782,0,0,0-.714,2.34,7.247,7.247,0,0,0,1.043,3.56,4.85,4.85,0,0,0,1.3,1.46,2.967,2.967,0,0,0,1.825.61,2.481,2.481,0,0,0,2.7-2.13,9.706,9.706,0,0,0,.072-1.06A8.008,8.008,0,0,0,236.37,7706.1Z" transform="translate(-226 -7703)"/>
</svg>
