<svg xmlns="http://www.w3.org/2000/svg" width="50" height="50" viewBox="0 0 50 50">
  <defs>
    <style>
      .cls-1 {
        fill: #8c00ef;
        fill-rule: evenodd;
      }
    </style>
  </defs>
  <path class="cls-1" d="M88.518,6657.01c-6.657,0-13.8-3.82-21.259-11.38-8-8.09-11.778-15.82-11.22-22.97a16.336,16.336,0,0,1,5.062-10.61l1.537-1.56a4.987,4.987,0,0,1,7.13,0l6.039,6.12a5.164,5.164,0,0,1,0,7.23l-2.875,2.91a6.861,6.861,0,0,1-.628.54,2.376,2.376,0,0,0-1.2,1.68c-0.056.94,0.515,3.19,4.972,7.69s6.673,5.07,7.6,5.03a2.314,2.314,0,0,0,1.655-1.22,7.066,7.066,0,0,1,.538-0.65l2.837-2.89a5,5,0,0,1,7.132,0l9.171,9.82a2.631,2.631,0,0,1-.643,1.78,2.752,2.752,0,0,1-1.817.61l-9.144-9.8a1.614,1.614,0,0,0-2.289.03l-2.836,2.89c-0.05.05-.173,0.21-0.263,0.33a5.542,5.542,0,0,1-4.127,2.54c-2.733.17-5.979-1.74-10.215-6.03s-6.132-7.56-5.966-10.34a5.624,5.624,0,0,1,2.506-4.19c0.114-.09.271-0.22,0.318-0.27l2.872-2.9a1.659,1.659,0,0,0,.478-1.17,1.678,1.678,0,0,0-.479-1.18l-6.041-6.12a1.619,1.619,0,0,0-2.316,0l-1.545,1.56a13.1,13.1,0,0,0-4.068,8.44c-0.476,6.1,2.967,12.91,10.23,20.26s13.992,10.83,20.007,10.32a13.27,13.27,0,0,0,7.737-3.56l1.57-1.3a3.136,3.136,0,0,1,1.8.85,2.352,2.352,0,0,1,.43,1.76l-2.341,1.96a15.59,15.59,0,0,1-8.919,3.73c-0.472.04-.95,0.06-1.429,0.06" transform="translate(-55.484 -6608)"/>
</svg>
