<svg xmlns="http://www.w3.org/2000/svg" width="51.938" height="50.47" viewBox="0 0 51.938 50.47">
  <defs>
    <style>
      .cls-1 {
        fill: #00b5d5;
        fill-rule: evenodd;
      }
    </style>
  </defs>
  <path id="phone_icon" data-name="phone icon" class="cls-1" d="M169.492,1001.71c-7.053,0-14.62-4.01-22.52-11.95-8.476-8.507-12.476-16.633-11.885-24.152a17.117,17.117,0,0,1,5.362-11.152l1.629-1.64a5.322,5.322,0,0,1,7.553,0l6.4,6.441a5.4,5.4,0,0,1,0,7.6l-3.046,3.056a7.029,7.029,0,0,1-.665.566,2.487,2.487,0,0,0-1.271,1.767c-0.06.987,0.545,3.346,5.267,8.081s7.069,5.331,8.049,5.284a2.443,2.443,0,0,0,1.753-1.28,7.464,7.464,0,0,1,.57-0.679l3-3.038a5.321,5.321,0,0,1,7.554,0l9.715,10.323a2.771,2.771,0,0,1-.681,1.875,2.911,2.911,0,0,1-1.925.632l-9.686-10.3a1.723,1.723,0,0,0-2.425.03l-3,3.038c-0.053.054-.183,0.222-0.278,0.345a5.87,5.87,0,0,1-4.372,2.673c-2.895.174-6.333-1.83-10.821-6.335s-6.5-7.955-6.319-10.871a5.914,5.914,0,0,1,2.655-4.41c0.12-.094.287-0.225,0.336-0.275l3.042-3.052a1.754,1.754,0,0,0,0-2.466l-6.4-6.441a1.728,1.728,0,0,0-2.453,0l-1.637,1.649a13.692,13.692,0,0,0-4.309,8.863c-0.5,6.412,3.143,13.576,10.837,21.3s14.821,11.383,21.193,10.844a14.105,14.105,0,0,0,8.2-3.735l1.664-1.372a3.342,3.342,0,0,1,1.907.9,2.443,2.443,0,0,1,.455,1.843l-2.479,2.069a16.611,16.611,0,0,1-9.448,3.913c-0.5.04-1.007,0.06-1.514,0.06" transform="translate(-135.031 -951.25)"/>
</svg>
