<svg xmlns="http://www.w3.org/2000/svg" width="50" height="50" viewBox="0 0 50 50">
  <defs>
    <style>
      .cls-1 {
        fill: #307fe4;
        fill-rule: evenodd;
      }
    </style>
  </defs>
  <path id="icon" class="cls-1" d="M77.591,6464.81a2.362,2.362,0,1,0,2.362-2.36,2.367,2.367,0,0,0-2.362,2.36m2.362-2.22a2.22,2.22,0,1,0,2.223,2.22,2.22,2.22,0,0,0-2.223-2.22m0,4.72a2.5,2.5,0,1,1,2.5-2.5,2.5,2.5,0,0,1-2.5,2.5m-5.433-21.32c1.023-2.91,3.071-4.56,5.787-4.56a4.427,4.427,0,0,1,4.725,4.37c0,4.72-6.536,4.33-6.536,11.41v1.69h2.913v-1.89c0-5.47,6.615-5.07,6.615-11.37,0-3.7-2.639-6.81-7.717-6.81a8.286,8.286,0,0,0-8.268,5.78,2.645,2.645,0,0,0,2.481,1.38m4.115,12.77H81.27v-1.75c0-2.7,1.617-4.04,3.183-5.34,1.687-1.39,3.432-2.84,3.432-6.03,0-4.05-2.975-6.67-7.577-6.67a8.119,8.119,0,0,0-8.113,5.63,2.478,2.478,0,0,0,2.228,1.25c1.065-2.94,3.152-4.56,5.885-4.56a4.538,4.538,0,0,1,4.864,4.51c0,2.19-1.372,3.32-2.825,4.52-1.739,1.43-3.71,3.06-3.71,6.89v1.55Zm2.914,0.28H78.356v-1.83c0-3.96,2.025-5.64,3.813-7.11,1.461-1.2,2.722-2.25,2.722-4.3a4.273,4.273,0,0,0-4.584-4.23c-2.634,0-4.643,1.59-5.656,4.47l-0.032.09h-0.1a2.794,2.794,0,0,1-2.6-1.44l-0.037-.06,0.022-.06a8.386,8.386,0,0,1,8.4-5.88c3.91,0,7.857,2.15,7.857,6.95,0,3.32-1.8,4.81-3.534,6.25-1.585,1.31-3.081,2.55-3.081,5.12v2.03ZM80,6476.99a23.735,23.735,0,0,1-14.732-5.05,2.8,2.8,0,0,1,.493-1.73,2.905,2.905,0,0,1,1.569-.92A20.4,20.4,0,0,0,80,6473.64,20.64,20.64,0,1,0,59.359,6453a21.568,21.568,0,0,0,5.647,14.4,3.313,3.313,0,0,1-.918,1.58,2.847,2.847,0,0,1-1.616.62A24.694,24.694,0,0,1,56,6453a24,24,0,1,1,24,23.99" transform="translate(-55 -6428)"/>
</svg>
