<svg xmlns="http://www.w3.org/2000/svg" width="74.5" height="31" viewBox="0 0 74.5 31">
  <defs>
    <style>
      .cls-1 {
        fill: #00b5d5;
        fill-rule: evenodd;
      }
    </style>
  </defs>
  <path id="router_icon" data-name="router icon" class="cls-1" d="M179.618,817.33a2.494,2.494,0,1,1-2.5-2.468,2.483,2.483,0,0,1,2.5,2.468m-7.932,0a2.5,2.5,0,1,1-2.5-2.468,2.485,2.485,0,0,1,2.5,2.468m-7.934,0a2.5,2.5,0,1,1-2.5-2.468,2.483,2.483,0,0,1,2.5,2.468m27.1,9.165H130.146a6.872,6.872,0,0,1-6.9-6.83V815a6.872,6.872,0,0,1,6.9-6.83h37.292a3.071,3.071,0,0,0,3.083-3.053v-9.007a3.312,3.312,0,0,1,3.814,0v9.007a6.872,6.872,0,0,1-6.9,6.83H130.146A3.072,3.072,0,0,0,127.063,815v4.663a3.071,3.071,0,0,0,3.083,3.053h60.708a3.071,3.071,0,0,0,3.083-3.053V815a3.072,3.072,0,0,0-3.083-3.053H176.16a2.882,2.882,0,0,1,0-3.777h14.694a6.871,6.871,0,0,1,6.9,6.83v4.663a6.871,6.871,0,0,1-6.9,6.83" transform="translate(-123.25 -795.5)"/>
</svg>
