<svg xmlns="http://www.w3.org/2000/svg" width="29" height="24" viewBox="0 0 29 24">
  <defs>
    <style>
      .cls-1 {
        fill: #fff;
        fill-rule: evenodd;
      }
    </style>
  </defs>
  <path class="cls-1" d="M174,7705.84h0m-8.923-2.84a6,6,0,0,0-5.95,6.06,6.216,6.216,0,0,0,.154,1.38,16.77,16.77,0,0,1-12.264-6.33,6.141,6.141,0,0,0,1.842,8.09,5.873,5.873,0,0,1-2.7-.76c0,0.03,0,.05,0,0.08a6.042,6.042,0,0,0,4.773,5.94,5.8,5.8,0,0,1-1.568.21,5.9,5.9,0,0,1-1.119-.11,5.97,5.97,0,0,0,5.558,4.21,11.829,11.829,0,0,1-7.389,2.59,13.291,13.291,0,0,1-1.42-.08,16.614,16.614,0,0,0,9.121,2.72c10.944,0,16.929-9.23,16.929-17.24q0-.39-0.017-0.78a12.258,12.258,0,0,0,2.969-3.14,11.909,11.909,0,0,1-3.418.96,6.062,6.062,0,0,0,2.617-3.36,11.616,11.616,0,0,1-3.779,1.47,5.918,5.918,0,0,0-4.343-1.91" transform="translate(-145 -7703)"/>
</svg>
